<svg xmlns="http://www.w3.org/2000/svg" xmlns:xlink="http://www.w3.org/1999/xlink" viewBox="0 0 1416.26 585.22"><defs><style>.cls-1{fill:url(#Degradado_sin_nombre_19);}.cls-2{fill:#b6cd11;}.cls-3{fill:#f3d000;}.cls-4{fill:#fff;}.cls-5{fill:url(#Degradado_sin_nombre_10);}.cls-6{fill:#998200;opacity:0.8;}</style><linearGradient id="Degradado_sin_nombre_19" x1="-21.77" y1="560.53" x2="310.23" y2="494.53" gradientUnits="userSpaceOnUse"><stop offset="0" stop-color="#036d9f"/><stop offset="1" stop-color="#039c9f"/></linearGradient><linearGradient id="Degradado_sin_nombre_10" x1="147.19" y1="411.52" x2="101.19" y2="169.52" gradientUnits="userSpaceOnUse"><stop offset="0" stop-color="#f08e00"/><stop offset="1" stop-color="#f3d000"/></linearGradient></defs><title>Recurso 3</title><g id="Capa_2" data-name="Capa 2"><g id="Capa_1-2" data-name="Capa 1"><path class="cls-1" d="M226.39,585.22c-42.2,0-83-3.51-122.93-13.48-30.53-7.61-60-17.93-86-36.44-14.4-10.27-20.28-26-16.22-42,3.92-15.47,16.88-26.72,33.91-29a32.76,32.76,0,0,1,23.4,5.4c24.1,16.78,51.51,24.71,79.76,30.17,48.8,9.43,97.94,10.19,147.22,4.3,30.25-3.61,59.73-10.19,87.52-23.14a105.73,105.73,0,0,0,16.39-9.51,38.63,38.63,0,0,1,45.3,62.58c-19.2,14.32-41,23.51-63.6,30.75-36.39,11.64-73.8,17.42-111.92,19.33C247.93,584.77,236.62,585,226.39,585.22Z"/><path class="cls-2" d="M317.37,125.21A62.11,62.11,0,0,1,255,62.6,62.63,62.63,0,1,1,380.22,63C380.15,97.71,352.31,125.26,317.37,125.21Z"/><path class="cls-3" d="M135.44,125.2A62.13,62.13,0,0,1,72.9,62.73a62.61,62.61,0,1,1,125.23.16A62.1,62.1,0,0,1,135.44,125.2Z"/><path class="cls-4" d="M642.84,196.12c2.74,1.56,5.08,2.8,7.31,4.2,22.73,14.25,16.79,44.63,3,55-8.45,6.39-18.23,8.82-28.46,9.64-13.3,1.06-26.64.78-40,.62-11.89-.14-15.69-4.18-15.7-16.21q0-50.49,0-101c0-12.08,4.12-16.38,16.12-16.38,14.31,0,28.68-.87,42.86,1.88,24.24,4.7,36.83,28.68,26.16,49.59C651.65,188.55,647.64,192.27,642.84,196.12ZM594.31,226c0,4.66,0,9.32,0,14,0,2.14.58,3.59,3,3.55,9.64-.15,19.34.86,28.88-1.15,9.19-1.94,13.39-7,13.64-15.91.24-8.17-4-13.91-12.7-16.21-10-2.65-20.2-1-30.32-1.25-2.31,0-2.52,1.71-2.51,3.49Q594.33,219.23,594.31,226Zm14-73.12c-4.13,0-7.13.06-10.11,0-2.61-.07-4,.79-4,3.71.1,9.14.07,18.28,0,27.42,0,2.42.76,3.7,3.41,3.7,7.14,0,14.3.22,21.38-.94,8.53-1.4,13.44-7.34,13.75-16.39.29-8.74-4.2-14.52-12.72-16.54C615.85,152.77,611.52,153,608.35,152.85Z"/><path class="cls-4" d="M1301.7,178.54c1-8.95,4.6-13.09,11.55-13.69,7.41-.64,13.06,4.49,13.12,12.33.12,16.32,0,32.64,0,49q0,12.49,0,25c0,9.62-3.54,14.47-10.88,15-8.23.59-12.7-3.73-13.9-13.92-6.88,9.06-15.89,13.69-26.71,15-21.87,2.66-40.48-8.29-47.61-29.4-6.39-18.93-5.68-37.76,5.36-55.2,16.36-25.85,54.47-23.88,67.88-4.72C1300.73,178.12,1301.1,178.2,1301.7,178.54Zm-53.48,36.58c0,1.5-.09,3,0,4.49,1.07,15.27,11.42,26.3,25.48,27.18,14.63.91,26.1-8.49,28.82-24a39,39,0,0,0-1.8-21.11,27,27,0,0,0-41.36-12C1251,196,1248.25,205,1248.22,215.12Z"/><path class="cls-4" d="M755.85,222.67c1.08,15.09,14.23,25.38,30.13,23.95,5.56-.5,10.81-1.79,15.53-4.88a37.49,37.49,0,0,1,3.93-2.17c5.45-2.69,10.16-2,13.1,1.78s2.55,10.15-1.28,14.21a36.14,36.14,0,0,1-17.6,9.93c-15.23,4-30.17,3.29-44.09-4.38-18.06-10-24.32-26.66-24.06-46.17.19-14.19,4.33-27.22,14.55-37.75,16.24-16.74,46-18.89,62.88-4.13,11.62,10.17,14.38,23.94,13.75,38.56-.24,5.4-3.87,8.72-9.25,9.68a43.78,43.78,0,0,1-7.44.62c-14.65.06-29.31,0-44,0C760.07,222,758,221.58,755.85,222.67Zm43.5-17.19c-.16-14.22-7-21.56-19.65-21.71a22.31,22.31,0,0,0-22.9,21.71Z"/><path class="cls-4" d="M977.74,222.79c1,14.84,14.15,25.25,30,23.84,5.55-.49,10.79-1.75,15.55-4.84a44.54,44.54,0,0,1,6.24-3.09,8.52,8.52,0,0,1,10.09,1.93c3,3,3.58,6.64,2.19,10.62-1,3-3.14,5.07-5.5,7-19.25,15.4-63.37,14-77.7-16.94-8.84-19.11-6.67-50.57,11.75-66.48,14.23-12.29,38.44-15.21,54.77-5.9,13.23,7.55,22.67,28.91,19.31,43.65-1.07,4.7-3.9,7.69-8.6,8.63a42,42,0,0,1-7.93.76c-14.82.07-29.64,0-44.46.06C981.55,222,979.48,221.43,977.74,222.79Zm43.63-17.37c-.17-14.12-7.33-21.66-20.19-21.65-12.16,0-22.42,9.78-22.42,21.65Z"/><path class="cls-4" d="M868.87,179.28c4.93-6.5,10.13-11.59,17.43-13.7,23.36-6.76,46.65,2.27,47.83,31.62.76,19,.38,38,.29,57,0,7.48-5.23,12.61-12.08,12.64s-12.25-5.38-12.31-13c-.13-15.83,0-31.66-.07-47.49-.08-16.57-11.73-25-27.42-19.93-8,2.59-12.24,8.45-13.36,16.5-1.52,10.93-.42,22-.66,32.94-.13,6,.09,12-.07,18-.21,7.87-5.23,13.08-12.25,13s-12.07-5.45-12.09-13.21q-.12-38,0-76c0-7.82,4.5-12.55,11.69-12.81s11.68,3.91,12.65,11.33C868.54,176.92,868.65,177.69,868.87,179.28Z"/><path class="cls-4" d="M1098.52,163.6a49.54,49.54,0,0,1,29.32,8.19,13,13,0,0,1,5.94,7.72c1,3.83.3,7.35-2.64,10.1a8.84,8.84,0,0,1-10.22,1.59c-3.19-1.41-6.19-3.26-9.35-4.74-6.84-3.21-13.92-4.53-21.33-2.19-3.95,1.25-6.7,3.63-7,8.08s2.26,7.06,6.09,8.71c5.55,2.38,11.52,3.21,17.3,4.74a78,78,0,0,1,15,5.39c9.6,4.78,15,12.4,15.53,23.23.55,11.43-3.8,20.46-13.55,26.62-8.47,5.35-18,6.85-27.77,6.71-11.3-.16-22.22-2.13-31.4-9.57-1.7-1.38-3.41-2.74-4.32-4.76-1.9-4.21-2.29-8.44,1-12.15s7.46-3.46,11.51-1.84c3.22,1.29,6.11,3.39,9.27,4.88,8.13,3.82,16.5,5,25.15,1.82,4-1.5,6.79-4.08,7-8.72.27-4.83-2.59-7.26-6.59-8.89-6.83-2.79-14.2-3.41-21.23-5.42a78.08,78.08,0,0,1-10.74-4c-21-9.52-19.5-37.56-3.07-48.48A42.85,42.85,0,0,1,1098.52,163.6Z"/><path class="cls-4" d="M1194,266.93c-11.44-.31-22-2.53-27.74-14a33.68,33.68,0,0,1-3.35-15.47c.05-15.49-.07-31,.08-46.47,0-3.56-.88-4.91-4.7-5.08-6.79-.31-10.43-4.33-10.33-10.39s3.84-9.5,10.87-9.64c3.46-.07,4.22-1.5,4.12-4.53-.15-5-.13-10,0-15,.19-7.82,5-12.63,12.49-12.55,7.18.08,11.76,4.82,11.93,12.51.11,5,.19,10,0,15-.15,3.54,1.24,4.79,4.68,4.52a66.45,66.45,0,0,1,8,0c5.51.23,9.18,3.58,9.78,8.81a9.9,9.9,0,0,1-8,11,47.67,47.67,0,0,1-10,.39c-3.17-.11-4.47.95-4.45,4.27.12,15.32-.06,30.65.13,46,.1,7.7,2.2,9.49,9.92,9.67,10.06.24,15.49,8.13,10.82,15.82C1205,267.19,1199.44,266.94,1194,266.93Z"/><path class="cls-4" d="M1377.42,180.09c6.1-7.92,12.94-13.62,22.69-15.11,9.41-1.44,16,3,16.15,10.87.11,6.34-3.22,10.26-9.6,11.26-4.1.64-8.3.7-12.29,2-11.22,3.76-16.75,11.7-16.89,24.85-.15,13.49.11,27-.12,40.46-.17,9.84-9.55,15.3-18,10.7a11.63,11.63,0,0,1-6.27-10.67c-.11-26-.17-52,0-77.92.05-7.24,5.19-11.75,12.24-11.75s11.65,4.57,12,11.89C1377.47,177.83,1377.42,179,1377.42,180.09Z"/><path class="cls-4" d="M863.16,395.33c0,13.82,0,26.46,0,39.09a28.81,28.81,0,0,1-.23,5,4.36,4.36,0,0,1-4.49,3.89c-2.49.1-4.26-1-4.81-3.45a24.71,24.71,0,0,1-.52-5.44q0-49.72,0-99.45a29.54,29.54,0,0,1,.07-3c.33-3.27,1.51-6.12,5.35-5.9,3.46.2,4.61,2.85,4.64,6,0,2.66,0,5.31,0,9.5,4.6-6.47,9.48-10.76,15.57-13.45,25.07-11.08,52.7,4.34,56.67,31.54,2.26,15.52-.48,29.61-11.92,41C910.29,413.8,882.24,419.24,863.16,395.33Zm31.54-61.5c-18.54-.21-31.75,13.71-32.18,33.92-.42,19.64,13.17,35,31.13,35.1C912.32,403,925.7,389,925.89,369,926.09,348.33,913.42,334,894.69,333.82Z"/><path class="cls-4" d="M1270.23,340.86c0-4.38,0-7.49,0-10.6,0-10.83,0-21.66.1-32.48,0-3.34,1.37-6.06,5.26-5.87,3.54.17,4.67,2.66,4.67,5.89q0,53.48,0,107c0,3.3-1.29,5.64-4.82,5.71s-5-2.31-5.12-5.52a53.09,53.09,0,0,0-.55-7.91c-5.77,6.37-12.23,10.94-20.25,13.35-24.09,7.26-49.27-9.56-51.52-34.6-1-11.13-.22-22,5.75-31.87,14-23.18,46.78-25.79,64.32-5.14C1268.37,339.14,1268.76,339.45,1270.23,340.86Zm.68,27.67c0-1,.08-2,0-3-1.15-13-6.41-23.6-18.86-28.94-11.56-5-23.15-4-32.82,4.39-11.83,10.29-13.69,24-10,38.43,4.83,19.12,23.36,28.34,41.79,21.42C1263.13,396.25,1270.91,383.66,1270.91,368.52Z"/><path class="cls-4" d="M633.93,341.54c0-4.2-.12-7.15,0-10.09s1.65-5.23,4.87-5.26,4.75,2.16,5.08,5.13a54.55,54.55,0,0,1,.14,6q0,31.74,0,63.49a33.11,33.11,0,0,1-.3,5.47,4.63,4.63,0,0,1-5.29,4.19c-2.75-.16-4.25-2-4.43-4.56-.21-3.11-.05-6.25-.05-10.78-6.2,8-12.94,13-21.52,15.48-22.45,6.43-46.11-8-50.29-31-2.77-15.25-1-29.63,9.59-41.79C585.55,321.95,616,318,633.93,341.54Zm.42,25.83c-.08-1.09-.13-3.43-.43-5.74-2.82-22.2-26.67-34.79-46.22-24.06-13.47,7.4-17.24,20-16.41,34.42,1.32,22.94,22,36.67,43.1,28.88C626.55,396.38,634.28,383.88,634.35,367.37Z"/><path class="cls-4" d="M813.53,340.09c1.35-2.83.61-5.35.82-7.77.3-3.28,1.24-6.2,5.1-6.12s4.88,2.9,4.88,6.27q0,17,0,34,0,18.49,0,37c0,3.61-.51,7-5.09,7-4.32,0-4.69-3.41-4.92-6.74-.14-2.12.4-4.32-.51-6.35-1.14-.36-1.53.52-2,1.11-10.42,11.93-23.58,15.88-38.76,12.45-15.49-3.5-25.77-13.28-29.57-28.65-4.07-16.44-2.39-32.13,9.71-45.34C766.12,322.78,795.22,317.76,813.53,340.09ZM751.9,369.68c0,.71,0,2.55.25,4.37,1.45,12.11,7,21.68,18.52,26.42,11.81,4.88,23.39,3.46,33.17-5.12,9.53-8.37,12.06-19.61,11-31.8-1.9-20.92-20.61-34-40.66-28.47C760.31,338.86,751.87,351.57,751.9,369.68Z"/><path class="cls-4" d="M1051.57,368.15c-8.33,0-16.68.31-25-.11-5.09-.26-5.88,1.86-5.36,6.17,3.55,29,33.73,34.77,50.91,23.13,1.24-.84,2.37-1.83,3.54-2.77,2-1.62,4.15-2.43,6.21-.25s1.35,4.41-.14,6.39c-3.43,4.57-8.26,7.25-13.54,9-20.45,6.72-41.69-.38-51.26-17-10.89-18.92-7.08-44.83,8.63-58.74s42.22-11.79,53.28,4.4c4.79,7,6.24,15,6.13,23.3-.06,4.4-2.21,6.63-6.9,6.54C1069.24,368,1060.4,368.15,1051.57,368.15Zm-28.83-9.86a7.36,7.36,0,0,0,1.82.47c15.33,0,30.65,0,46,.1,3.45,0,3.67-1.83,3.44-4.52-1.09-13-11-20.83-25.64-20.15C1035,334.81,1022.63,346.4,1022.74,358.29Z"/><path class="cls-4" d="M687,215.62c0-12.64,0-25.29,0-37.93,0-8,4.62-12.83,12-12.87s12.16,4.74,12.18,12.73q.1,37.93,0,75.86c0,8-5.18,13.54-12.29,13.42S687,261.22,687,253.05C686.93,240.57,687,228.1,687,215.62Z"/><path class="cls-4" d="M1118.87,338.07a31.54,31.54,0,0,1,21.27-12.77c19.21-2.76,36.51,5.77,36.36,29.22-.1,16.32,0,32.64,0,49,0,.17,0,.33,0,.5.06,3.49-.81,6.72-4.89,6.75s-4.87-3.17-4.86-6.7c0-15.15,0-30.31,0-45.47a39,39,0,0,0-1.65-10.81c-1.5-5.32-4.75-9.29-9.91-11.13-16.26-5.79-35.83.42-36.94,22.72-.67,13.46-.18,27-.21,40.46,0,1.67,0,3.33-.07,5-.19,3.39-1.67,6.07-5.34,5.94-3.45-.12-4.65-2.82-4.66-6q0-36.22,0-72.44c0-3.3,1-6.24,4.89-6.24s4.83,2.89,5.16,6.16C1118.2,334,1117.59,335.85,1118.87,338.07Z"/><path class="cls-4" d="M1353.71,400.1c1.89,1.51,3.78,1,5.53,1,12,.05,24,0,36,0,1.5,0,3,0,4.49.07,2.87.19,5.47,1,5.46,4.48s-2.43,4.41-5.42,4.47c-1.33,0-2.66,0-4,0-15.32,0-30.64,0-46,0-3.06,0-6.8,1-8.5-2.59s0-6.65,2.26-9.63q21.34-28.63,42.51-57.39c1-1.32,1.91-2.68,2.85-4-1.11-1.94-2.78-1.12-4.1-1.13-11.16-.08-22.32,0-33.47,0l-4,0c-2.77,0-5.18-.83-5.18-4.06,0-3.4,2.4-4.44,5.42-4.44l33.47,0c4.66,0,9.33,0,14,0,2.54,0,5.2-.13,6.55,2.57,1.44,2.87.45,5.48-1.36,7.89q-9.14,12.19-18.26,24.39-13.16,17.6-26.31,35.21A35.69,35.69,0,0,0,1353.71,400.1Z"/><path class="cls-4" d="M672.9,347.37q0-23.5,0-47a30,30,0,0,1,.16-4.49,4.24,4.24,0,0,1,4.37-4c2.7-.05,4.45,1.34,4.77,4.08a42.23,42.23,0,0,1,.12,5q0,44.49,0,89a43.64,43.64,0,0,0,.37,6c.48,3.48,2.07,5.82,6.06,6,2.83.15,5.63,1.36,5.2,4.75-.47,3.7-3.5,4.53-6.81,4.17-9.36-1-14.19-6.37-14.23-16C672.85,379,672.9,363.2,672.9,347.37Z"/><path class="cls-4" d="M967.47,341.59C973.27,334,979.15,329,987,326.78c3.08-.86,6.21-1.43,9.34-.36,2.41.82,4.05,2.38,3.79,5.17s-2.09,3.94-4.65,4.38c-23,3.93-28,9.95-28,33.5q0,16.5,0,33a25.36,25.36,0,0,1-.24,4.48,4.65,4.65,0,0,1-9.15,0,23.33,23.33,0,0,1-.28-4.48q0-34,0-68c0-1,0-2,0-3,.15-3,1.33-5.38,4.62-5.43,3.52-.06,4.92,2.32,5,5.59C967.51,334.44,967.47,337.24,967.47,341.59Z"/><path class="cls-4" d="M1319.2,368.59q0,17,0,34a11.65,11.65,0,0,1-.77,5.38,4.69,4.69,0,0,1-4.36,2.83,4.56,4.56,0,0,1-4.27-2.94c-.88-1.89-.72-3.91-.72-5.9q0-33.49,0-67c0-3.8-.5-8.18,4.86-8.92,3.54-.48,5.24,2.65,5.25,9Q1319.22,351.84,1319.2,368.59Z"/><path class="cls-4" d="M685.81,143.59c0-9,4.73-13.93,13.27-13.88s13.2,5.07,13.12,14.59c-.07,8.77-5.13,13.86-13.58,13.66S685.76,152.84,685.81,143.59Z"/><path class="cls-4" d="M1308,307.26c0-6.18,3.55-10,7.85-8.45,3.67,1.33,5.5,6.7,4,12.12-.89,3.13-2.83,5.57-6.37,5C1308.72,315.11,1307.85,311.39,1308,307.26Z"/><path class="cls-5" d="M265.07,307c.15-2.55.24-5.06.29-7.53,0-3,0-6.09,0-9.14-1.55-59.83-31.25-93.67-50.66-109.46C179.54,153.75,139.79,145.66,96,158.5,40.87,174.67,4.18,223.07,2.54,281.66c-1.12,40-.73,80-.12,120,.46,30.08,31.11,48.23,56.87,34.3C73.53,428.23,80,415.66,80,399.71c0-38.83-.1-77.65,0-116.48.08-28.29,22.7-51.93,50.67-53.25,29.06-1.38,53.8,19.3,56.66,47.9.88,8.75.34,17.64.46,26.47C188.08,326,204.84,343,226,343.16s37.66-15.31,39.22-36.26Z"/><path class="cls-2" d="M188.13,307c-.15-2.55-.24-5.06-.29-7.53,0-3,0-6.09,0-9.14,1.55-59.83,31.25-93.67,50.66-109.46,35.15-27.08,74.91-35.17,118.7-22.33,55.13,16.17,91.81,64.57,93.45,123.16,1.12,40,.73,80,.12,120-.46,30.08-31.11,48.23-56.87,34.3-14.24-7.7-20.67-20.27-20.68-36.23,0-38.83.1-77.65,0-116.48-.08-28.29-22.7-51.93-50.67-53.25-29.06-1.38-53.8,19.3-56.66,47.9-.88,8.75-.34,17.64-.46,26.47-.3,21.64-17.06,38.68-38.19,38.82S189.57,327.85,188,306.91Z"/><path class="cls-6" d="M265.19,306.91l-.12.05c.15-2.55.24-5.06.29-7.53,0-3,0-6.09,0-9.14-1.26-48.47-21-79.87-38.75-98.45-17.76,18.58-37.49,50-38.75,98.45,0,3,0,6.1,0,9.14.05,2.47.14,5,.29,7.53l-.12-.05c1.55,20.74,17.76,36.07,38.59,36.25C247.43,343,263.65,327.65,265.19,306.91Z"/></g></g></svg>